<?xml version="1.0" standalone="no"?>
<!DOCTYPE svg PUBLIC "-//W3C//DTD SVG 20010904//EN"
 "http://www.w3.org/TR/2001/REC-SVG-20010904/DTD/svg10.dtd">
<svg version="1.0" xmlns="http://www.w3.org/2000/svg"
 width="487.000000pt" height="419.000000pt" viewBox="0 0 487.000000 419.000000"
 preserveAspectRatio="xMidYMid meet">

<g transform="translate(0.000000,419.000000) scale(0.100000,-0.100000)"
fill="#000000" stroke="none">
<path d="M94 4151 c-69 -42 -64 83 -64 -1458 l0 -1393 34 -38 34 -37 822 -3
c819 -2 822 -2 817 -23 -3 -11 -24 -115 -48 -232 l-42 -212 -268 -270 c-227
-229 -268 -276 -274 -307 -11 -56 2 -93 46 -132 l39 -36 1240 0 c1035 0 1246
2 1274 14 69 29 99 133 54 192 -11 16 -135 144 -274 284 l-252 255 -42 210
c-23 116 -44 220 -47 232 l-5 23 822 2 822 3 34 37 34 38 0 1394 0 1393 -22
28 c-46 59 113 55 -2395 55 -2254 0 -2309 -1 -2339 -19z m4496 -1461 l0 -1210
-2150 0 -2150 0 0 1210 0 1210 2150 0 2150 0 0 -1210z m-1685 -1662 c21 -106
40 -199 42 -205 4 -10 -101 -13 -507 -13 -482 0 -511 1 -506 18 3 9 22 101 42
205 l37 187 427 0 427 0 38 -192z m285 -613 l135 -135 -885 0 -885 0 135 135
135 135 615 0 615 0 135 -135z"/>
<path d="M1291 3614 c-196 -71 -292 -277 -220 -469 17 -46 38 -75 89 -126 60
-59 66 -68 53 -84 -7 -11 -13 -31 -13 -47 0 -27 -2 -28 -45 -28 -33 0 -67 11
-125 40 -44 22 -82 40 -85 40 -3 0 -5 -95 -5 -210 l0 -210 80 40 c61 31 91 40
130 40 l50 0 0 -144 c0 -136 1 -146 23 -171 12 -15 37 -30 55 -33 l32 -7 -61
-108 -61 -109 -41 7 c-109 17 -174 17 -191 0 -20 -21 -21 -68 -1 -85 26 -21
109 -25 146 -6 17 9 51 16 75 16 24 0 49 6 57 15 8 8 48 73 88 145 l73 130
423 0 c306 0 429 3 448 12 35 16 55 57 55 113 l0 45 73 0 c66 0 85 -5 201 -55
70 -30 129 -55 132 -55 2 0 4 137 4 305 0 184 -4 305 -9 305 -6 0 -67 -25
-137 -55 -113 -48 -136 -55 -195 -55 l-67 0 -4 62 c-4 51 -9 65 -32 84 l-27
24 41 36 c22 20 54 66 72 102 30 60 33 75 33 157 0 77 -4 98 -27 147 -34 73
-103 142 -176 176 -49 23 -70 27 -152 27 -81 0 -103 -4 -145 -25 -57 -28 -140
-101 -162 -143 l-14 -29 -28 44 c-61 96 -161 150 -286 155 -55 2 -94 -2 -124
-13z m178 -212 c100 -51 106 -186 11 -250 -29 -20 -44 -23 -88 -20 -79 7 -132
65 -132 146 0 72 71 142 145 142 17 0 45 -8 64 -18z m651 0 c38 -20 80 -89 80
-132 0 -14 -8 -41 -19 -60 -71 -134 -271 -89 -271 61 0 112 113 182 210 131z
m-376 -310 c4 -10 24 -37 46 -60 22 -23 40 -44 40 -47 0 -3 -48 -5 -107 -5
l-107 0 41 43 c22 23 46 52 52 65 14 27 28 28 35 4z m80 -243 c33 -26 36 -79
6 -109 -19 -19 -33 -20 -249 -20 l-230 0 -20 26 c-33 42 -23 96 22 114 12 5
117 9 233 9 199 1 213 0 238 -20z m154 -433 c5 -23 -23 -47 -44 -39 -15 5 -19
44 -7 57 13 13 48 1 51 -18z m100 -5 c4 -29 -15 -43 -40 -30 -18 10 -24 39
-11 53 15 15 48 1 51 -23z m110 2 c4 -30 -31 -49 -52 -27 -19 19 -20 26 -4 42
19 19 53 10 56 -15z"/>
<path d="M1328 3351 c-28 -25 -33 -36 -33 -75 0 -38 5 -51 33 -78 27 -27 40
-33 76 -33 51 0 81 22 103 73 44 105 -93 190 -179 113z"/>
<path d="M1981 3354 c-60 -50 -49 -144 22 -177 43 -21 60 -21 97 -2 41 21 60
53 60 103 0 35 -6 49 -29 73 -40 39 -105 41 -150 3z"/>
<path d="M1350 2810 c-8 -15 -6 -24 10 -40 19 -19 33 -20 221 -20 205 0 239 5
239 38 0 39 -17 42 -242 42 -206 0 -218 -1 -228 -20z"/>
<path d="M3375 2954 c-258 -23 -476 -43 -482 -43 -10 -1 -13 -27 -13 -96 l0
-95 63 0 c34 0 254 5 490 12 l427 12 0 128 c0 70 -3 127 -7 127 -5 -1 -219
-21 -478 -45z"/>
<path d="M3890 2579 l0 -390 23 6 c12 4 26 11 32 16 5 5 34 9 66 9 76 0 123
30 127 82 2 29 -2 40 -17 50 -26 16 -26 29 -1 51 22 19 27 66 8 85 -9 9 -9 18
0 37 17 37 15 58 -8 83 -11 12 -20 25 -20 30 0 5 9 17 20 27 32 29 26 68 -17
104 -30 24 -35 33 -24 40 10 7 12 21 8 56 -4 26 -10 51 -13 57 -13 20 -90 48
-136 48 l-48 0 0 -391z"/>
<path d="M3225 2694 c-187 -6 -341 -12 -342 -13 -2 -1 -3 -43 -3 -95 l0 -94
83 -6 c45 -3 258 -8 472 -12 215 -3 398 -8 408 -10 15 -5 17 5 17 120 l0 126
-147 -2 c-82 0 -301 -7 -488 -14z"/>
<path d="M2880 2361 c0 -56 3 -101 6 -101 14 0 903 -70 937 -74 l37 -4 0 123
0 123 -37 6 c-21 3 -211 8 -423 11 -212 3 -415 8 -452 11 l-68 6 0 -101z"/>
</g>
</svg>
